<svg width="48" height="48" viewBox="0 0 48 48" fill="none" xmlns="http://www.w3.org/2000/svg">
<path d="M18.2653 10.2191C18.9322 8.77606 20.6432 8.14616 22.0863 8.81312C23.5292 9.48011 24.1582 11.1913 23.4913 12.6344L21.3425 17.2815C24.6594 16.591 27.9784 17.4136 30.5309 19.3013C31.809 20.2466 32.0788 22.0493 31.1335 23.3274C30.1882 24.6055 28.3855 24.8753 27.1074 23.93C25.7396 22.9186 23.9517 22.5231 22.19 22.9951C19.119 23.818 17.2965 26.9747 18.1193 30.0457C18.9422 33.1168 22.0989 34.9393 25.17 34.1164C26.9316 33.6444 28.2822 32.4079 28.9611 30.8481C29.5953 29.3904 31.2914 28.7227 32.7491 29.3569C34.2068 29.9912 34.8746 31.6872 34.2403 33.1449C32.8918 36.244 30.1875 38.7319 26.66 39.6771C20.5178 41.3229 14.2045 37.6779 12.5587 31.5357L8.08873 14.8537C7.67732 13.3183 8.58819 11.7397 10.1235 11.328C11.659 10.9166 13.238 11.8282 13.6494 13.3637L14.81 17.6953L18.2653 10.2191ZM35.9117 23.7881C36.6794 23.5823 37.4689 24.0382 37.6746 24.8059C37.8803 25.5737 37.4246 26.3632 36.6568 26.5689L24.0526 29.9462C23.2848 30.1519 22.4953 29.6961 22.2896 28.9283C22.0839 28.1606 22.5397 27.3711 23.3075 27.1654L35.9117 23.7881Z" fill="#EFEFEF"/>
</svg>
