<svg width="96" height="96" viewBox="0 0 96 96" fill="none" xmlns="http://www.w3.org/2000/svg">
<path d="M49.8098 60.4523C46.8538 60.0131 44.4765 57.2336 44.4998 54.2441L44.8049 15.2365C44.8282 12.247 47.2435 10.1796 50.1995 10.6188L74.6917 14.258C77.6477 14.6972 80.0251 17.4767 80.0017 20.4661L79.6967 59.4738C79.6733 62.4633 77.258 64.5306 74.302 64.0914L49.8098 60.4523Z" fill="url(#paint0_linear_310_146)"/>
<path d="M35.3699 71.129C32.4139 70.6898 30.0366 67.9103 30.06 64.9209L30.365 25.9132C30.3884 22.9238 32.8036 20.8564 35.7596 21.2956L60.2519 24.9347C63.2079 25.3739 65.5852 28.1534 65.5618 31.1429L65.2568 70.1505C65.2334 73.14 62.8182 75.2074 59.8622 74.7682L35.3699 71.129Z" fill="url(#paint1_linear_310_146)"/>
<path d="M21.3101 81.74C18.3541 81.3008 15.9768 78.5213 16.0002 75.5319L16.3052 36.5242C16.3286 33.5348 18.7438 31.4674 21.6998 31.9066L46.1921 35.5457C49.1481 35.9849 51.5254 38.7644 51.502 41.7539L51.197 80.7615C51.1736 83.751 48.7584 85.8184 45.8024 85.3792L21.3101 81.74Z" fill="url(#paint2_linear_310_146)"/>
<defs>
<linearGradient id="paint0_linear_310_146" x1="48.0009" y1="10.56" x2="48.0009" y2="85.438" gradientUnits="userSpaceOnUse">
<stop stop-color="#12B5F1"/>
<stop offset="1" stop-color="#0AA7E1"/>
</linearGradient>
<linearGradient id="paint1_linear_310_146" x1="48.0009" y1="10.56" x2="48.0009" y2="85.438" gradientUnits="userSpaceOnUse">
<stop stop-color="#FAA533"/>
<stop offset="1" stop-color="#F79B21"/>
</linearGradient>
<linearGradient id="paint2_linear_310_146" x1="16.1527" y1="56.0281" x2="51.3883" y2="56.3036" gradientUnits="userSpaceOnUse">
<stop stop-color="#EF7722"/>
<stop offset="1" stop-color="#EC6F17"/>
</linearGradient>
</defs>
</svg>
