<svg width="300" height="300" viewBox="0 0 300 300" fill="none" xmlns="http://www.w3.org/2000/svg">
<path d="M150.75 47.5789C155.525 41.8488 164.041 41.0753 169.771 45.8504C175.501 50.6254 176.276 59.1408 171.501 64.8709L156.123 83.324C171.993 84.2237 186.034 91.9838 195.31 103.638C199.954 109.475 198.988 117.971 193.152 122.616C187.316 127.261 178.818 126.295 174.174 120.459C169.203 114.213 161.58 110.248 153.021 110.248C138.104 110.248 126.012 122.341 126.012 137.259C126.012 152.176 138.104 164.27 153.021 164.27C161.579 164.27 169.203 160.305 174.174 154.059C178.818 148.223 187.316 147.256 193.152 151.901C198.989 156.546 199.954 165.043 195.31 170.88C185.435 183.288 170.157 191.281 153.021 191.281C123.186 191.281 99 167.094 99 137.259V56.2254C99 48.7664 105.047 42.7195 112.506 42.7195C119.965 42.7195 126.012 48.7664 126.012 56.2254V77.2654L150.75 47.5789ZM214.247 130.506C217.976 130.506 221 133.529 221 137.259C221 140.988 217.976 144.011 214.247 144.011H153.022C149.293 144.011 146.27 140.988 146.27 137.259C146.27 133.529 149.293 130.506 153.022 130.506H214.247Z" fill="#FF6900"/>
<path d="M54.8854 256.653C54.2951 256.653 54 256.335 54 255.7V214.471C54 213.835 54.2951 213.517 54.8854 213.517H63.844C64.1217 213.517 64.3474 213.606 64.5211 213.782C64.6947 213.959 64.7815 214.189 64.7815 214.471V231.164L78.5318 214.047C78.8443 213.694 79.2089 213.517 79.6255 213.517H89.8341C90.3549 213.517 90.6154 213.694 90.6154 214.047C90.6154 214.189 90.5286 214.383 90.3549 214.63L77.4901 229.733L91.9696 255.541C92.0737 255.753 92.1258 255.929 92.1258 256.07C92.1258 256.459 91.8654 256.653 91.3445 256.653H81.0318C80.5457 256.653 80.1985 256.441 79.9901 256.017L70.1983 238.212L64.7815 244.571V255.7C64.7815 255.982 64.6947 256.212 64.5211 256.388C64.3474 256.565 64.1217 256.653 63.844 256.653H54.8854Z" fill="black"/>
<path d="M146.156 256.653C145.566 256.653 145.271 256.335 145.271 255.7V214.471C145.271 213.835 145.566 213.517 146.156 213.517H155.115C155.393 213.517 155.618 213.606 155.792 213.782C155.966 213.959 156.052 214.189 156.052 214.471V231.164L169.803 214.047C170.115 213.694 170.48 213.517 170.896 213.517H181.105C181.626 213.517 181.886 213.694 181.886 214.047C181.886 214.189 181.799 214.383 181.626 214.63L168.761 229.733L183.24 255.541C183.345 255.753 183.397 255.929 183.397 256.07C183.397 256.459 183.136 256.653 182.615 256.653H172.303C171.817 256.653 171.469 256.441 171.261 256.017L161.469 238.212L156.052 244.571V255.7C156.052 255.982 155.966 256.212 155.792 256.388C155.618 256.565 155.393 256.653 155.115 256.653H146.156Z" fill="black"/>
<path d="M126.132 214.778C123.371 213.549 120.403 212.935 117.228 212.935C114.053 212.935 111.102 213.549 108.376 214.778C105.615 216.007 103.372 217.991 101.646 220.73C99.9205 223.469 99.0578 226.981 99.0578 231.265L99.0578 255.705C99.0578 256.337 99.3511 256.653 99.9378 256.653L108.842 256.653C109.118 256.653 109.342 256.566 109.515 256.39C109.687 256.214 109.774 255.986 109.774 255.705V245.148H124.735V255.705C124.735 255.986 124.821 256.214 124.993 256.39C125.132 256.566 125.339 256.653 125.615 256.653H134.571C134.847 256.653 135.071 256.566 135.244 256.39C135.382 256.214 135.451 255.986 135.451 255.705V231.265C135.451 226.981 134.588 223.469 132.862 220.73C131.102 217.991 128.859 216.007 126.132 214.778ZM124.735 235.944H109.774V233.424C109.774 230.159 110.447 227.683 111.793 225.998C113.139 224.347 114.95 223.522 117.228 223.522C119.575 223.522 121.421 224.347 122.767 225.998C124.079 227.648 124.735 230.124 124.735 233.424V235.944Z" fill="black"/>
<path d="M206.668 257.281C202.558 257.281 198.858 256.35 195.569 254.49C192.28 252.663 189.694 250.096 187.81 246.788C185.96 243.481 185.035 239.69 185.035 235.418C185.035 231.145 185.96 227.355 187.81 224.047C189.694 220.739 192.28 218.172 195.569 216.346C198.858 214.485 202.558 213.555 206.668 213.555C210.779 213.555 214.462 214.485 217.716 216.346C221.005 218.172 223.574 220.739 225.424 224.047C227.309 227.355 228.251 231.145 228.251 235.418C228.251 239.69 227.309 243.481 225.424 246.788C223.574 250.096 221.005 252.663 217.716 254.49C214.462 256.35 210.779 257.281 206.668 257.281ZM196.031 235.418C196.031 237.657 196.477 239.656 197.368 241.413C198.258 243.136 199.509 244.48 201.119 245.445C202.729 246.409 204.579 246.892 206.668 246.892C208.758 246.892 210.591 246.409 212.167 245.445C213.777 244.48 215.027 243.136 215.918 241.413C216.809 239.656 217.254 237.657 217.254 235.418C217.254 233.178 216.809 231.197 215.918 229.474C215.027 227.717 213.777 226.356 212.167 225.391C210.591 224.426 208.758 223.944 206.668 223.944C204.579 223.944 202.729 224.426 201.119 225.391C199.509 226.356 198.258 227.717 197.368 229.474C196.477 231.197 196.031 233.178 196.031 235.418Z" fill="black"/>
<path d="M240.348 221.979C238.737 221.979 237.384 221.497 236.288 220.532C235.226 219.533 234.695 218.241 234.695 216.656C234.695 215.071 235.226 213.779 236.288 212.779C237.384 211.78 238.737 211.281 240.348 211.281C241.958 211.281 243.294 211.78 244.356 212.779C245.452 213.779 246 215.071 246 216.656C246 218.241 245.452 219.533 244.356 220.532C243.294 221.497 241.958 221.979 240.348 221.979ZM235.209 226.89C235.209 226.614 235.295 226.407 235.466 226.269C235.637 226.097 235.86 226.011 236.134 226.011H244.561C244.835 226.011 245.058 226.097 245.229 226.269C245.4 226.407 245.486 226.614 245.486 226.89V255.523C245.486 255.799 245.4 256.023 245.229 256.195C245.058 256.368 244.835 256.454 244.561 256.454H236.134C235.86 256.454 235.637 256.368 235.466 256.195C235.295 256.023 235.209 255.799 235.209 255.523V226.89Z" fill="black"/>
</svg>
