<svg width="858" height="300" viewBox="0 0 858 300" fill="none" xmlns="http://www.w3.org/2000/svg">
<rect width="119.684" height="85.4882" rx="13" transform="matrix(0.0078226 -0.999969 0.989149 0.146915 141.471 177.68)" fill="url(#paint0_linear_371_572)"/>
<rect width="119.684" height="85.4882" rx="13" transform="matrix(0.0078226 -0.999969 0.989149 0.146915 106.779 203.321)" fill="url(#paint1_linear_371_572)"/>
<rect width="119.684" height="85.4882" rx="13" transform="matrix(0.0078226 -0.999969 0.989149 0.146915 73 228.804)" fill="url(#paint2_linear_371_572)"/>
<path d="M318.412 208.421C316.804 208.421 316 207.56 316 205.837V94.1627C316 92.4402 316.804 91.5789 318.412 91.5789H342.82C343.576 91.5789 344.191 91.8182 344.664 92.2966C345.137 92.7751 345.374 93.3971 345.374 94.1627V139.378L382.836 93.0143C383.687 92.0574 384.681 91.5789 385.816 91.5789H413.629C415.048 91.5789 415.757 92.0574 415.757 93.0143C415.757 93.3971 415.521 93.9234 415.048 94.5933L379.998 135.502L419.447 205.407C419.731 205.981 419.872 206.459 419.872 206.842C419.872 207.895 419.163 208.421 417.744 208.421H389.647C388.323 208.421 387.377 207.847 386.809 206.699L360.132 158.469L345.374 175.694V205.837C345.374 206.603 345.137 207.225 344.664 207.703C344.191 208.182 343.576 208.421 342.82 208.421H318.412Z" fill="black"/>
<path d="M567.077 208.421C565.469 208.421 564.664 207.56 564.664 205.837V94.1627C564.664 92.4402 565.469 91.5789 567.077 91.5789H591.484C592.241 91.5789 592.856 91.8182 593.329 92.2966C593.802 92.7751 594.038 93.3971 594.038 94.1627V139.378L631.5 93.0143C632.352 92.0574 633.345 91.5789 634.48 91.5789H662.293C663.712 91.5789 664.422 92.0574 664.422 93.0143C664.422 93.3971 664.185 93.9234 663.712 94.5933L628.662 135.502L668.111 205.407C668.395 205.981 668.537 206.459 668.537 206.842C668.537 207.895 667.827 208.421 666.408 208.421H638.312C636.987 208.421 636.041 207.847 635.474 206.699L608.796 158.469L594.038 175.694V205.837C594.038 206.603 593.802 207.225 593.329 207.703C592.856 208.182 592.241 208.421 591.484 208.421H567.077Z" fill="black"/>
<path d="M735.495 210C726.845 210 718.758 208.335 711.236 205.006C703.808 201.677 697.696 196.303 692.901 188.884C688.2 181.465 685.849 171.953 685.849 160.349V94.1471C685.849 93.3862 686.037 92.7679 686.413 92.2923C686.883 91.8167 687.494 91.5789 688.247 91.5789H712.647C713.399 91.5789 713.963 91.8167 714.339 92.2923C714.809 92.7679 715.044 93.3862 715.044 94.1471V154.499C715.044 163.44 716.831 170.146 720.404 174.616C724.071 179.087 729.101 181.322 735.495 181.322C741.701 181.322 746.637 179.087 750.304 174.616C753.971 170.051 755.805 163.345 755.805 154.499V94.1471C755.805 93.3862 756.04 92.7679 756.51 92.2923C756.98 91.8167 757.591 91.5789 758.344 91.5789H782.602C784.201 91.5789 785 92.435 785 94.1471V160.349C785 171.953 782.649 181.465 777.948 188.884C773.247 196.303 767.135 201.677 759.613 205.006C752.185 208.335 744.146 210 735.495 210Z" fill="black"/>
<path d="M512.522 94.9937C505 91.6646 496.914 90 488.263 90C479.613 90 471.574 91.6646 464.146 94.9937C456.623 98.3228 450.512 103.697 445.81 111.116C441.109 118.535 438.758 128.047 438.758 139.651L438.758 205.853C438.758 207.565 439.558 208.421 441.156 208.421L465.415 208.421C466.167 208.421 466.778 208.183 467.248 207.708C467.719 207.232 467.954 206.614 467.954 205.853V177.258H508.714V205.853C508.714 206.614 508.949 207.232 509.419 207.708C509.795 208.183 510.36 208.421 511.112 208.421H535.512C536.264 208.421 536.875 208.183 537.345 207.708C537.721 207.232 537.909 206.614 537.909 205.853V139.651C537.909 128.047 535.559 118.535 530.857 111.116C526.062 103.697 519.95 98.3228 512.522 94.9937ZM508.714 152.327H467.954V145.501C467.954 136.655 469.787 129.949 473.454 125.384C477.121 120.913 482.058 118.678 488.263 118.678C494.657 118.678 499.688 120.913 503.355 125.384C506.928 129.854 508.714 136.56 508.714 145.501V152.327Z" fill="black"/>
<defs>
<linearGradient id="paint0_linear_371_572" x1="59.8418" y1="0" x2="59.8418" y2="85.4882" gradientUnits="userSpaceOnUse">
<stop stop-color="#12B5F1"/>
<stop offset="1" stop-color="#0AA7E1"/>
</linearGradient>
<linearGradient id="paint1_linear_371_572" x1="59.8418" y1="0" x2="59.8418" y2="85.4882" gradientUnits="userSpaceOnUse">
<stop stop-color="#FAA533"/>
<stop offset="1" stop-color="#F79B21"/>
</linearGradient>
<linearGradient id="paint2_linear_371_572" x1="59.8418" y1="0" x2="59.8418" y2="85.4882" gradientUnits="userSpaceOnUse">
<stop stop-color="#EF7722"/>
<stop offset="1" stop-color="#EC6F17"/>
</linearGradient>
</defs>
</svg>
