<svg width="300" height="300" viewBox="0 0 300 300" fill="none" xmlns="http://www.w3.org/2000/svg">
<path d="M149.746 43.4434C157.104 34.6135 170.227 33.4201 179.057 40.7783C187.886 48.1366 189.079 61.26 181.721 70.0899L158.024 98.5244C182.48 99.9108 204.118 111.869 218.41 129.828C225.567 138.822 224.078 151.915 215.085 159.072C206.092 166.23 192.998 164.741 185.841 155.747C178.181 146.122 166.434 140.013 153.246 140.013C130.259 140.013 111.624 158.648 111.624 181.636C111.624 204.623 130.259 223.258 153.246 223.259C166.434 223.259 178.181 217.149 185.841 207.524C192.998 198.531 206.092 197.042 215.085 204.199C224.078 211.357 225.567 224.451 218.41 233.444C203.193 252.565 179.651 264.883 153.246 264.883C107.271 264.883 70 227.611 70 181.636C70 181.584 70.0009 181.533 70.001 181.481V56.7666C70.001 45.2727 79.3187 35.9551 90.8125 35.9551C102.306 35.9551 111.624 45.2727 111.624 56.7666V89.1895L149.746 43.4434ZM247.592 171.23C253.338 171.231 257.997 175.889 257.997 181.636C257.997 187.383 253.338 192.042 247.592 192.042H153.246C147.499 192.042 142.841 187.383 142.841 181.636C142.841 175.889 147.499 171.231 153.246 171.23H247.592Z" fill="#FF6900"/>
</svg>
