<svg width="691" height="181" viewBox="0 0 691 181" fill="none" xmlns="http://www.w3.org/2000/svg">
<path d="M171.407 151.296C169.802 151.296 169 150.432 169 148.704V36.6704C169 34.9424 169.802 34.0784 171.407 34.0784H195.763C196.518 34.0784 197.132 34.3184 197.604 34.7984C198.076 35.2784 198.312 35.9024 198.312 36.6704V82.0309L235.696 35.5184C236.545 34.5584 237.537 34.0784 238.669 34.0784H266.424C267.84 34.0784 268.548 34.5584 268.548 35.5184C268.548 35.9024 268.312 36.4304 267.84 37.1024L232.864 78.1428L272.23 148.272C272.513 148.848 272.655 149.328 272.655 149.712C272.655 150.768 271.947 151.296 270.53 151.296H242.493C241.171 151.296 240.227 150.72 239.661 149.568L213.039 101.183L198.312 118.463V148.704C198.312 149.472 198.076 150.096 197.604 150.576C197.132 151.056 196.518 151.296 195.763 151.296H171.407Z" fill="black"/>
<path d="M419.55 151.296C417.945 151.296 417.143 150.432 417.143 148.704V36.6704C417.143 34.9424 417.945 34.0784 419.55 34.0784H443.906C444.661 34.0784 445.275 34.3184 445.747 34.7984C446.219 35.2784 446.455 35.9024 446.455 36.6704V82.0309L483.838 35.5184C484.688 34.5584 485.679 34.0784 486.812 34.0784H514.567C515.983 34.0784 516.691 34.5584 516.691 35.5184C516.691 35.9024 516.455 36.4304 515.983 37.1024L481.006 78.1428L520.372 148.272C520.656 148.848 520.797 149.328 520.797 149.712C520.797 150.768 520.089 151.296 518.673 151.296H490.635C489.314 151.296 488.37 150.72 487.803 149.568L461.182 101.183L446.455 118.463V148.704C446.455 149.472 446.219 150.096 445.747 150.576C445.275 151.056 444.661 151.296 443.906 151.296H419.55Z" fill="black"/>
<path d="M365.11 37.5041C357.603 34.1643 349.534 32.4944 340.902 32.4944C332.27 32.4944 324.247 34.1643 316.835 37.5041C309.328 40.8439 303.229 46.2353 298.538 53.6782C293.846 61.1212 291.501 70.6635 291.501 82.305L291.501 148.719C291.501 150.437 292.298 151.296 293.893 151.296L318.101 151.296C318.852 151.296 319.462 151.057 319.931 150.58C320.4 150.103 320.635 149.483 320.635 148.719V120.032H361.31V148.719C361.31 149.483 361.544 150.103 362.013 150.58C362.389 151.057 362.952 151.296 363.702 151.296H388.051C388.802 151.296 389.412 151.057 389.881 150.58C390.256 150.103 390.444 149.483 390.444 148.719V82.305C390.444 70.6635 388.098 61.1212 383.407 53.6782C378.621 46.2353 372.522 40.8439 365.11 37.5041ZM361.31 95.0214H320.635V88.1735C320.635 79.2992 322.464 72.5719 326.124 67.9916C329.783 63.5068 334.709 61.2643 340.902 61.2643C347.282 61.2643 352.302 63.5068 355.961 67.9916C359.527 72.4765 361.31 79.2038 361.31 88.1735V95.0214Z" fill="black"/>
<path d="M584.067 153C572.891 153 562.832 150.472 553.891 145.416C544.95 140.453 537.918 133.478 532.795 124.489C527.766 115.5 525.251 105.2 525.251 93.5899C525.251 81.9794 527.766 71.6798 532.795 62.691C537.918 53.7022 544.95 46.7266 553.891 41.764C562.832 36.7079 572.891 34.1798 584.067 34.1798C595.244 34.1798 605.256 36.7079 614.104 41.764C623.045 46.7266 630.031 53.7022 635.06 62.691C640.183 71.6798 642.744 81.9794 642.744 93.5899C642.744 105.2 640.183 115.5 635.06 124.489C630.031 133.478 623.045 140.453 614.104 145.416C605.256 150.472 595.244 153 584.067 153ZM555.148 93.5899C555.148 99.676 556.359 105.107 558.78 109.882C561.202 114.564 564.602 118.215 568.979 120.837C573.356 123.459 578.386 124.77 584.067 124.77C589.749 124.77 594.732 123.459 599.016 120.837C603.393 118.215 606.793 114.564 609.214 109.882C611.636 105.107 612.847 99.676 612.847 93.5899C612.847 87.5037 611.636 82.1198 609.214 77.4382C606.793 72.6629 603.393 68.9644 599.016 66.3427C594.732 63.721 589.749 62.4101 584.067 62.4101C578.386 62.4101 573.356 63.721 568.979 66.3427C564.602 68.9644 561.202 72.6629 558.78 77.4382C556.359 82.1198 555.148 87.5037 555.148 93.5899Z" fill="black"/>
<path d="M675.632 57.073C671.255 57.073 667.576 55.7622 664.595 53.1404C661.708 50.4251 660.265 46.9139 660.265 42.6067C660.265 38.2996 661.708 34.7884 664.595 32.073C667.576 29.3577 671.255 28 675.632 28C680.01 28 683.642 29.3577 686.529 32.073C689.51 34.7884 691 38.2996 691 42.6067C691 46.9139 689.51 50.4251 686.529 53.1404C683.642 55.7622 680.01 57.073 675.632 57.073ZM661.662 70.4157C661.662 69.6667 661.895 69.1049 662.36 68.7303C662.826 68.2622 663.431 68.0281 664.176 68.0281H687.088C687.833 68.0281 688.439 68.2622 688.904 68.7303C689.37 69.1049 689.603 69.6667 689.603 70.4157V148.225C689.603 148.974 689.37 149.582 688.904 150.051C688.439 150.519 687.833 150.753 687.088 150.753H664.176C663.431 150.753 662.826 150.519 662.36 150.051C661.895 149.582 661.662 148.974 661.662 148.225V70.4157Z" fill="black"/>
<path d="M57.4766 13.3977C62.7799 7.03361 72.2384 6.17359 78.6025 11.4768C84.9666 16.7801 85.8266 26.2386 80.5234 32.6027L63.4434 53.0978C81.0701 54.0969 96.6662 62.7149 106.968 75.6594C112.126 82.1413 111.053 91.5788 104.571 96.7375C98.0892 101.896 88.6518 100.823 83.4932 94.341C77.9724 87.4039 69.505 83.0003 60 83.0002C43.4317 83.0004 30.0001 96.4319 30 113C30 129.569 43.4317 143 60 143C69.505 143 77.9724 138.596 83.4932 131.659C88.6519 125.178 98.0893 124.104 104.571 129.263C111.053 134.421 112.126 143.859 106.968 150.341C96.0001 164.122 79.0314 173 60 173C26.8631 173 0 146.137 0 113V23.0002C0.000137647 14.7161 6.71584 8.00023 15 8.00019C23.2842 8.00019 29.9999 14.716 30 23.0002V46.3693L57.4766 13.3977ZM128 105.5C132.142 105.5 135.5 108.858 135.5 113C135.5 117.142 132.142 120.5 128 120.5H60C55.8579 120.5 52.5 117.142 52.5 113C52.5001 108.858 55.8579 105.5 60 105.5H128Z" fill="#FF6900"/>
</svg>
